<svg xmlns="http://www.w3.org/2000/svg" viewBox="2770 410 32 40"><defs><style>.a{fill:#fff;}</style></defs><g transform="translate(2758.509 410)"><path class="a" d="M37.557,35.416A13.407,13.407,0,0,0,51.073,22.153,13.407,13.407,0,0,0,37.557,8.89a13.638,13.638,0,0,0-9.721,4.045V2.245H46.428a1.133,1.133,0,0,0,1.144-1.123A1.133,1.133,0,0,0,46.428,0H26.692a1.133,1.133,0,0,0-1.144,1.123V16.04l-.013.274a1.126,1.126,0,0,0,.835,1.134,1.152,1.152,0,0,0,1.313-.545,11.265,11.265,0,0,1,9.874-5.767A11.137,11.137,0,0,1,48.785,22.153,11.137,11.137,0,0,1,37.557,33.171,11.354,11.354,0,0,1,31.8,31.594V22.153a5.762,5.762,0,1,1,5.761,5.654,5.818,5.818,0,0,1-2.218-.434,1.153,1.153,0,0,0-1.5.6,1.115,1.115,0,0,0,.615,1.468,8.133,8.133,0,0,0,3.1.607,7.9,7.9,0,1,0-8.049-7.9v7.671a10.9,10.9,0,0,1-2.776-4.736,1.146,1.146,0,0,0-1.407-.784,1.12,1.12,0,0,0-.8,1.38A13.512,13.512,0,0,0,37.557,35.416Z" transform="translate(-8.038)"/><path class="a" d="M39.636,12.548a1.114,1.114,0,0,0-.581,1.481,1.152,1.152,0,0,0,1.51.57c3.585-1.562,10.63-3.194,17.517,3.432a1.16,1.16,0,0,0,1.618-.015,1.108,1.108,0,0,0-.016-1.588C51.539,8.592,42.95,11.1,39.636,12.548Z" transform="translate(-16.992 -6.877)"/><path class="a" d="M43.1,70.744a1.159,1.159,0,0,0-1.614.111,15.982,15.982,0,0,1-11.966,5.353A15.728,15.728,0,0,1,13.772,62.44a1.144,1.144,0,0,0-2.273.255,18,18,0,0,0,18.02,15.759,18.288,18.288,0,0,0,13.692-6.125A1.109,1.109,0,0,0,43.1,70.744Z" transform="translate(0 -38.454)"/><path class="a" d="M50.6,56.869a1.159,1.159,0,0,0,1.618.011l1.175-1.137L54.549,56.9a1.159,1.159,0,0,0,1.618.011,1.108,1.108,0,0,0,.011-1.588L55.02,54.167l1.132-1.1a1.108,1.108,0,0,0,.011-1.588,1.159,1.159,0,0,0-1.618-.011l-1.132,1.1L52.3,51.458a1.159,1.159,0,0,0-1.618-.011,1.108,1.108,0,0,0-.011,1.588l1.116,1.111L50.61,55.281A1.108,1.108,0,0,0,50.6,56.869Z" transform="translate(-23.991 -31.994)"/></g></svg>