<svg xmlns="http://www.w3.org/2000/svg" viewBox="12599.015 2657 35 38.889"><defs><style>.a{fill:#fff;}</style></defs><g transform="translate(12599.015 2657)"><path class="a" d="M39.685,164.715H39.58a2.391,2.391,0,0,0-2.446,2.318v10.093a2.389,2.389,0,0,0,2.446,2.32h.107a2.392,2.392,0,0,0,2.446-2.32V167.033A2.4,2.4,0,0,0,39.685,164.715Z" transform="translate(-37.134 -152.034)"/><path class="a" d="M113.085,185.462a2.195,2.195,0,0,0,2.248,2.127h2.4v5.452a2.392,2.392,0,0,0,2.446,2.322h.105a2.393,2.393,0,0,0,2.45-2.322v-5.452h3.357v5.452a2.4,2.4,0,0,0,2.45,2.322h.1a2.391,2.391,0,0,0,2.448-2.322v-5.452h2.4a2.194,2.194,0,0,0,2.246-2.127V169.525H113.085Z" transform="translate(-106.916 -156.474)"/><path class="a" d="M129.206,3.386,131.114.595a.372.372,0,0,0-.119-.531.416.416,0,0,0-.561.113l-1.978,2.888a13.75,13.75,0,0,0-9.786,0L116.7.176a.419.419,0,0,0-.564-.113.372.372,0,0,0-.119.531l1.91,2.791c-3.443,1.6-5.765,4.613-5.765,8.071,0,.213.014.422.033.629h22.749c.019-.208.032-.417.032-.629C134.971,8,132.647,4.986,129.206,3.386Zm-10.916,5a1.037,1.037,0,1,1,1.1-1.036A1.066,1.066,0,0,1,118.29,8.385Zm10.546,0a1.037,1.037,0,1,1,1.093-1.036A1.066,1.066,0,0,1,128.836,8.385Z" transform="translate(-106.063 0)"/><path class="a" d="M409.02,164.715h-.1a2.394,2.394,0,0,0-2.45,2.318v10.093a2.394,2.394,0,0,0,2.45,2.32h.1a2.39,2.39,0,0,0,2.446-2.32V167.033A2.393,2.393,0,0,0,409.02,164.715Z" transform="translate(-376.468 -152.034)"/></g></svg>