<svg xmlns="http://www.w3.org/2000/svg" viewBox="3150 1745 81.263 80"><defs><style>.a{fill:#fff;}</style></defs><g transform="translate(3150 1741.02)"><g transform="translate(0 59.576)"><g transform="translate(0)"><path class="a" d="M4.187,354.263A14.3,14.3,0,0,0,24.4,374.48Z" transform="translate(0 -354.263)"/></g></g><g transform="translate(7.977 51.996)"><rect class="a" width="5.361" height="28.591" transform="translate(0 3.791) rotate(-45)"/></g><g transform="translate(15.559 3.98)"><g transform="translate(0 0)"><path class="a" d="M157.837,42.308c-4.212-4.212-6.739-1.685-10.95-5.9s-1.685-6.739-5.9-10.951-6.739-1.685-10.951-5.9-1.685-6.739-5.9-10.951-5.475-.421-9.687-4.633L98.029,48.2l20.217,20.217,45.488-15.163C159.522,49.047,162.049,46.52,157.837,42.308Z" transform="translate(-98.029 -3.98)"/></g></g></g></svg>