<svg xmlns="http://www.w3.org/2000/svg" viewBox="5070 1288 26 26"><defs><style>.a{fill:#fff;}</style></defs><g transform="translate(5069.999 1288)"><path class="a" d="M3.251,4.063V.813a.813.813,0,1,1,1.625,0v3.25a.813.813,0,0,1-1.625,0Zm13.813.812a.812.812,0,0,0,.813-.812V.813a.813.813,0,0,0-1.625,0v3.25A.812.812,0,0,0,17.064,4.875ZM26,19.5A6.5,6.5,0,1,1,19.5,13,6.5,6.5,0,0,1,26,19.5Zm-1.625,0A4.875,4.875,0,1,0,19.5,24.375,4.881,4.881,0,0,0,24.376,19.5ZM6.5,9.75H3.251V13H6.5Zm-3.25,8.125H6.5v-3.25H3.251ZM8.126,13h3.25V9.75H8.126Zm0,4.875h3.25v-3.25H8.126Zm-6.5,1.463V8.125H19.5v3.25h1.625V5.037a1.773,1.773,0,0,0-1.76-1.787h-.678v.813a1.625,1.625,0,1,1-3.25,0V3.25H5.688v.813a1.625,1.625,0,1,1-3.25,0V3.25H1.762A1.774,1.774,0,0,0,0,5.037v14.3a1.776,1.776,0,0,0,1.761,1.787h9.614V19.5H1.762A.154.154,0,0,1,1.626,19.338ZM16.251,13V9.75H13V13Zm5.688,6.5H19.5V17.062a.812.812,0,0,0-1.625,0v3.25a.812.812,0,0,0,.812.813h3.25a.813.813,0,0,0,0-1.625Z"/></g></svg>