<svg xmlns="http://www.w3.org/2000/svg" viewBox="2471 1745 100 80"><defs><style>.a{fill:#fff;}</style></defs><g transform="translate(2471 1735)"><path class="a" d="M50,40A15,15,0,1,0,65,55,15,15,0,0,0,50,40ZM90,25H78a4.453,4.453,0,0,1-3.949-2.846l-3.1-9.309A4.456,4.456,0,0,0,67,10H33a4.453,4.453,0,0,0-3.949,2.846l-3.1,9.309A4.456,4.456,0,0,1,22,25H10A10.029,10.029,0,0,0,0,35V80A10.029,10.029,0,0,0,10,90H90a10.029,10.029,0,0,0,10-10V35A10.029,10.029,0,0,0,90,25ZM50,80A25,25,0,1,1,75,55,25,25,0,0,1,50,80ZM86.5,41.993a3.5,3.5,0,1,1,3.5-3.5A3.5,3.5,0,0,1,86.5,41.993Z"/></g></svg>