<svg xmlns="http://www.w3.org/2000/svg" viewBox="2812 1745 96.55 80">
  <path fill="#fff" d="M2908.55 1789.44a12.66 12.66 0 0 0-1.2-5.37 17.6 17.6 0 0 0-.28-1.27l-8.4-20.79-.05-.19c-2.93-8.73-7.11-16.82-17.7-16.82h-40.48c-10.85 0-14.68 8.29-17.68 16.77l-8.77 20.84a12.83 12.83 0 0 0-1.99 6.83v6.47a12.57 12.57 0 0 0 .34 2.92 5.08 5.08 0 0 0-.34 1.83v19.23a5.1 5.1 0 0 0 5.1 5.11h10.6a5.1 5.1 0 0 0 5.11-5.1v-9.63h55.53v9.62a5.1 5.1 0 0 0 5.11 5.11h10a5.1 5.1 0 0 0 5.1-5.1v-19.25a5.11 5.11 0 0 0-.34-1.82 12.63 12.63 0 0 0 .34-2.92v-6.47zm-79.56-25.58c3.34-9.42 6.02-12.3 11.45-12.3h40.48c5.39 0 8.4 3.21 11.44 12.26l6.12 12.4a18.73 18.73 0 0 0-6.5-1.15h-63.4a18.82 18.82 0 0 0-5.9.94zm5.25 34.5h-11.18a3.65 3.65 0 0 1 0-7.3h11.18a3.65 3.65 0 0 1 0 7.3zm39.5-.73h-26a2.31 2.31 0 0 1 0-4.62h26a2.31 2.31 0 1 1 0 4.62zm23.47.73h-11.18a3.65 3.65 0 0 1 0-7.3h11.18a3.65 3.65 0 1 1 0 7.3z"/>
</svg>