<svg xmlns="http://www.w3.org/2000/svg" viewBox="2812 1745 96.552 80"><defs><style>.a{fill:#fff;}</style></defs><g transform="translate(2812 1706.63)"><path class="a" d="M96.551,82.809a12.656,12.656,0,0,0-1.2-5.373c-.08-.422-.171-.843-.285-1.27L86.676,55.381l-.057-.187c-2.934-8.737-7.11-16.824-17.7-16.824H28.442c-10.848,0-14.682,8.287-17.68,16.775L1.989,75.981A12.827,12.827,0,0,0,0,82.809v6.468A12.574,12.574,0,0,0,.343,92.2,5.083,5.083,0,0,0,0,94.026v19.236a5.108,5.108,0,0,0,5.108,5.108h10.6a5.108,5.108,0,0,0,5.106-5.108v-9.62H76.344v9.62a5.108,5.108,0,0,0,5.108,5.108h9.992a5.108,5.108,0,0,0,5.108-5.108V94.024a5.114,5.114,0,0,0-.343-1.828,12.634,12.634,0,0,0,.343-2.92V82.809h0ZM16.986,57.232c3.34-9.422,6.025-12.3,11.456-12.3H68.919c5.391,0,8.393,3.208,11.444,12.258l6.12,12.4a18.732,18.732,0,0,0-6.508-1.151h-63.4a18.818,18.818,0,0,0-5.9.94Zm5.257,34.5H11.061a3.648,3.648,0,0,1,0-7.3H22.244a3.648,3.648,0,0,1,0,7.3ZM61.748,91H35.736a2.31,2.31,0,0,1,0-4.619H61.748a2.31,2.31,0,1,1,0,4.619Zm23.46.731H74.025a3.648,3.648,0,0,1,0-7.3H85.208a3.648,3.648,0,1,1,0,7.3Z" transform="translate(0)"/></g></svg>