<svg xmlns="http://www.w3.org/2000/svg" viewBox="8610 1276 38 33.815"><defs><style>.a{fill:#fff;}</style></defs><g transform="translate(8610 1247.807)"><g transform="translate(0 28.193)"><path class="a" d="M38,45.1a2.1,2.1,0,0,0-1.165-1.885L34.006,41.8l2.829-1.415h0a2.108,2.108,0,0,0,0-3.77L20.862,28.63a4.187,4.187,0,0,0-3.725,0L1.165,36.617a2.107,2.107,0,0,0,0,3.77L3.994,41.8l-2.83,1.415a2.108,2.108,0,0,0,0,3.77L3.994,48.4,1.165,49.815a2.108,2.108,0,0,0,0,3.77l15.973,7.986a4.188,4.188,0,0,0,3.725,0l15.973-7.987a2.107,2.107,0,0,0,0-3.77L34.006,48.4l2.83-1.415A2.1,2.1,0,0,0,38,45.1ZM1.946,38.824a.361.361,0,0,1,0-.645l15.972-7.986a2.432,2.432,0,0,1,2.163,0l15.972,7.986a.361.361,0,0,1,0,.645L20.081,46.81a2.431,2.431,0,0,1-2.163,0ZM36.054,51.378a.361.361,0,0,1,0,.645L20.081,60.009a2.431,2.431,0,0,1-2.163,0L1.946,52.023a.361.361,0,0,1,0-.645l4-2,11.19,5.6a4.188,4.188,0,0,0,3.725,0l11.19-5.6Zm0-5.955L20.081,53.41a2.431,2.431,0,0,1-2.163,0L1.946,45.423a.361.361,0,0,1,0-.645l4-2,11.19,5.6a4.187,4.187,0,0,0,3.725,0l11.19-5.6,4,2a.361.361,0,0,1,0,.645Z" transform="translate(0 -28.193)"/></g></g></svg>