<svg xmlns="http://www.w3.org/2000/svg" viewBox="8610 1276 38 33.81">
  <path fill="#fff" d="M8648 1292.9a2.1 2.1 0 0 0-1.17-1.88l-2.82-1.41 2.82-1.42a2.1 2.1 0 0 0 0-3.77l-15.97-7.98a4.19 4.19 0 0 0-3.72 0l-15.98 7.98a2.1 2.1 0 0 0 0 3.77l2.83 1.42-2.83 1.41a2.1 2.1 0 0 0 0 3.77l2.83 1.42-2.83 1.41a2.1 2.1 0 0 0 0 3.77l15.98 7.99a4.19 4.19 0 0 0 3.72 0l15.98-7.99a2.1 2.1 0 0 0 0-3.77l-2.83-1.41 2.83-1.42a2.1 2.1 0 0 0 1.16-1.88zm-36.05-6.27a.36.36 0 0 1 0-.64l15.97-7.99a2.43 2.43 0 0 1 2.16 0l15.97 7.99a.36.36 0 0 1 0 .64l-15.97 7.99a2.43 2.43 0 0 1-2.16 0zm34.1 12.55a.36.36 0 0 1 0 .65l-15.97 7.99a2.43 2.43 0 0 1-2.16 0l-15.97-7.99a.36.36 0 0 1 0-.65l4-2 11.19 5.6a4.19 4.19 0 0 0 3.72 0l11.2-5.6zm0-5.95l-15.97 7.99a2.43 2.43 0 0 1-2.16 0l-15.97-7.99a.36.36 0 0 1 0-.65l4-2 11.19 5.6a4.19 4.19 0 0 0 3.72 0l11.2-5.6 4 2a.36.36 0 0 1 0 .65z"/>
</svg>