<svg xmlns="http://www.w3.org/2000/svg" viewBox="7998 576.5 48 37.714"><defs><style>.a{fill:#fff;}</style></defs><g transform="translate(7998 521.68)"><g transform="translate(0 54.82)"><path class="a" d="M4.607,66.445q.911.643,5.491,3.817t7.018,4.888q.268.188,1.138.817T19.7,76.985q.576.388,1.393.87a8.081,8.081,0,0,0,1.54.722,4.244,4.244,0,0,0,1.339.241h.054a4.248,4.248,0,0,0,1.339-.241,8.09,8.09,0,0,0,1.54-.722q.817-.483,1.393-.87t1.446-1.018q.87-.63,1.138-.817,2.464-1.714,12.536-8.705a12.725,12.725,0,0,0,3.267-3.295A7.074,7.074,0,0,0,48,59.106a4.322,4.322,0,0,0-4.286-4.286H4.286a3.825,3.825,0,0,0-3.174,1.393A5.407,5.407,0,0,0,0,59.695a6.257,6.257,0,0,0,1.473,3.656A13.3,13.3,0,0,0,4.607,66.445Z" transform="translate(0 -54.82)"/><path class="a" d="M45.321,186.767q-8.785,5.946-13.339,9.241-1.527,1.125-2.478,1.754a15.29,15.29,0,0,1-2.531,1.285,7.708,7.708,0,0,1-2.946.656h-.054a7.71,7.71,0,0,1-2.946-.656,15.3,15.3,0,0,1-2.531-1.285q-.951-.629-2.477-1.754-3.616-2.652-13.312-9.241A14.188,14.188,0,0,1,0,184.437V205.7a4.126,4.126,0,0,0,1.259,3.027,4.126,4.126,0,0,0,3.027,1.259H43.714A4.3,4.3,0,0,0,48,205.7V184.437A14.771,14.771,0,0,1,45.321,186.767Z" transform="translate(0 -172.277)"/></g></g></svg>