<svg xmlns="http://www.w3.org/2000/svg" viewBox="2595 410 33.333 40"><defs><style>.a{fill:#fff;}</style></defs><g transform="translate(2558.454 410)"><g transform="translate(36.546)"><path class="a" d="M55.713,16.666a2.489,2.489,0,0,1-2.5-2.5V0H39.046a2.41,2.41,0,0,0-1.771.729A2.41,2.41,0,0,0,36.546,2.5v35a2.489,2.489,0,0,0,2.5,2.5H67.38a2.489,2.489,0,0,0,2.5-2.5V16.666Zm7.5,15.834a.8.8,0,0,1-.833.833H44.046a.8.8,0,0,1-.833-.833V30.833A.8.8,0,0,1,44.046,30H62.38a.8.8,0,0,1,.833.833Zm0-6.667a.8.8,0,0,1-.833.833H44.046a.8.8,0,0,1-.833-.833V24.166a.8.8,0,0,1,.833-.833H62.38a.8.8,0,0,1,.833.833Z" transform="translate(-36.546)"/><path class="a" d="M267.373,10.672l-8.125-8.125A6.328,6.328,0,0,0,255.81.854V14.109h13.256A6.327,6.327,0,0,0,267.373,10.672Z" transform="translate(-235.81 -0.776)"/></g></g></svg>