<svg xmlns="http://www.w3.org/2000/svg" viewBox="4555 2615 64 37.097">
  <defs>
    <style>
      .cls-1 {
        fill: #333;
      }
    </style>
  </defs>
  <g id="students-cap" transform="translate(4555 2448.578)">
    <path id="Path_42" data-name="Path 42" class="cls-1" d="M178.793,408.192,159.7,402.316v9.814c0,4.537,8.551,8.216,19.1,8.216s19.1-3.679,19.1-8.216c0-.036-.012-.072-.012-.107v-9.708Z" transform="translate(-146.793 -216.827)"/>
    <path id="Path_43" data-name="Path 43" class="cls-1" d="M0,178.733l6.821,2.44.581-1.245,2.506-.213.357.372-2.15.51-.313.928s-4.857,10.152-4.143,15.119a6.264,6.264,0,0,0,6.061,0l.805-13.579v-1.13l4.51-1.017-.319.784-3.363,1.094,1.555.556L32,189.226l19.092-5.876L64,178.733,32,166.422Z" transform="translate(0 0)"/>
  </g>
</svg>
