<svg xmlns="http://www.w3.org/2000/svg" viewBox="7998 664.5 48 42.529"><defs><style>.a{fill:#fff;}</style></defs><g transform="translate(7998 662.96)"><path class="a" d="M3.674,39.49A1,1,0,0,0,4.68,40.563c1.3,0,12.1-.014,12.1-.014l.018-9.914S16.626,29,18.213,29h5.02a1.557,1.557,0,0,1,1.76,1.634l-.021,9.882H36.816a1.241,1.241,0,0,0,1.27-1.336V20.9L21.394,6.055,3.674,20.9S3.674,39.49,3.674,39.49Z" transform="translate(2.853 3.506)"/><path class="a" d="M0,23.026s1.5,2.773,4.786,0L24.394,6.438,42.779,22.923c3.8,2.739,5.221,0,5.221,0L24.394,1.54Z"/><path class="a" d="M25.9,4.275H21.168l.02,5.734L25.9,14Z" transform="translate(16.436 2.124)"/></g></svg>