<svg xmlns="http://www.w3.org/2000/svg" viewBox="4440 1288 20 26.011"><defs><style>.a{fill:#fff;}</style></defs><g transform="translate(4405.68 1288)"><path class="a" d="M95.035,10.266A5.133,5.133,0,1,0,89.9,5.133,5.139,5.139,0,0,0,95.035,10.266Z" transform="translate(-50.714)"/><path class="a" d="M51.208,140.694l-.009,0c-.668-.163-2.715-.45-2.715-.45a.455.455,0,0,0-.561.279l-3.081,8.452a.556.556,0,0,1-1.045,0l-3.081-8.452a.455.455,0,0,0-.427-.3c-.044,0-2.148.3-2.849.469a4.364,4.364,0,0,0-3.122,4.32v7.033a1.908,1.908,0,0,0,1.908,1.908H52.412a1.908,1.908,0,0,0,1.908-1.908v-7.056A4.516,4.516,0,0,0,51.208,140.694Z" transform="translate(0 -127.94)"/><path class="a" d="M135.811,136.515a.655.655,0,0,0-.484-.2h-1.356a.655.655,0,0,0-.484.2.629.629,0,0,0-.083.741l.725,1.093-.339,2.863.668,1.778a.2.2,0,0,0,.383,0l.668-1.778-.339-2.863.725-1.093A.629.629,0,0,0,135.811,136.515Z" transform="translate(-90.329 -124.376)"/></g></svg>