<svg xmlns="http://www.w3.org/2000/svg" viewBox="4440 1288 20 26.01">
  <defs>
    <style>
      .a{fill:#fff}
    </style>
  </defs>
  <path d="M4450 1298.27a5.13 5.13 0 1 0-5.13-5.14 5.14 5.14 0 0 0 5.13 5.14zM4456.89 1300.75h-.01c-.67-.16-2.72-.45-2.72-.45a.46.46 0 0 0-.56.28l-3.08 8.45a.56.56 0 0 1-1.04 0l-3.08-8.45a.46.46 0 0 0-.43-.3c-.05 0-2.15.3-2.85.47a4.36 4.36 0 0 0-3.12 4.32v7.03a1.9 1.9 0 0 0 1.9 1.91h16.2a1.9 1.9 0 0 0 1.9-1.9v-7.06a4.52 4.52 0 0 0-3.11-4.3z" class="a"/>
  <path d="M4451.16 1300.14a.66.66 0 0 0-.48-.2h-1.36a.66.66 0 0 0-.48.2.63.63 0 0 0-.09.74l.73 1.1-.34 2.86.67 1.77a.2.2 0 0 0 .38 0l.67-1.77-.34-2.87.73-1.09a.63.63 0 0 0-.09-.74z" class="a"/>
</svg>