<svg xmlns="http://www.w3.org/2000/svg" viewBox="7998 782.5 48 47.969"><defs><style>.a{fill:#fff;}</style></defs><g transform="translate(7998 782.312)"><g transform="translate(0 0.188)"><path class="a" d="M47.977,38.045a2.32,2.32,0,0,1-.711,2.033l-6.758,6.707a3.8,3.8,0,0,1-1.194.864,4.934,4.934,0,0,1-1.448.457q-.051,0-.305.026t-.66.025a23.425,23.425,0,0,1-3.125-.33A23.734,23.734,0,0,1,28.49,46.2,44.358,44.358,0,0,1,21.4,42.313,52.851,52.851,0,0,1,12.966,35.2a55.682,55.682,0,0,1-5.894-6.707,47.79,47.79,0,0,1-3.76-5.92,31.884,31.884,0,0,1-2.134-4.929,26.151,26.151,0,0,1-.965-3.811,12.586,12.586,0,0,1-.2-2.515Q.059,10.4.059,10.3A4.939,4.939,0,0,1,.517,8.852,3.808,3.808,0,0,1,1.38,7.658L8.139.9A2.238,2.238,0,0,1,9.765.188a1.9,1.9,0,0,1,1.169.381,3.533,3.533,0,0,1,.864.94l5.437,10.315a2.473,2.473,0,0,1,.254,1.778,3.167,3.167,0,0,1-.864,1.626l-2.49,2.49a.847.847,0,0,0-.178.33,1.254,1.254,0,0,0-.076.381,9.175,9.175,0,0,0,.915,2.439,22.39,22.39,0,0,0,1.88,2.973,33.006,33.006,0,0,0,3.608,4.04,33.658,33.658,0,0,0,4.065,3.633,23.476,23.476,0,0,0,2.973,1.905,7.9,7.9,0,0,0,1.829.737l.635.127a1.211,1.211,0,0,0,.33-.076.849.849,0,0,0,.33-.178l2.9-2.947a3.113,3.113,0,0,1,2.134-.813,2.655,2.655,0,0,1,1.372.3H36.9l9.807,5.793A2.556,2.556,0,0,1,47.977,38.045Z" transform="translate(0 -0.188)"/></g></g></svg>