<svg xmlns="http://www.w3.org/2000/svg" viewBox="8663 1274 38 37.841"><defs><style>.a{fill:#fff;}</style></defs><g transform="translate(8663 1273.875)"><path class="a" d="M8.85,6.125a2.85,2.85,0,1,0,2.85,2.85A2.853,2.853,0,0,0,8.85,6.125Zm0,4.433a1.583,1.583,0,1,1,1.583-1.583A1.585,1.585,0,0,1,8.85,10.558Z" transform="translate(-2.2 -2.2)"/><ellipse class="a" cx="0.633" cy="0.633" rx="0.633" ry="0.633" transform="translate(31.033 5.192)"/><ellipse class="a" cx="0.633" cy="0.633" rx="0.633" ry="0.633" transform="translate(28.5 5.192)"/><ellipse class="a" cx="0.633" cy="0.633" rx="0.633" ry="0.633" transform="translate(32.3 7.092)"/><ellipse class="a" cx="0.633" cy="0.633" rx="0.633" ry="0.633" transform="translate(29.767 7.092)"/><ellipse class="a" cx="0.633" cy="0.633" rx="0.633" ry="0.633" transform="translate(25.967 5.192)"/><ellipse class="a" cx="0.633" cy="0.633" rx="0.633" ry="0.633" transform="translate(27.233 7.092)"/><ellipse class="a" cx="0.633" cy="0.633" rx="0.633" ry="0.633" transform="translate(23.433 5.192)"/><ellipse class="a" cx="0.633" cy="0.633" rx="0.633" ry="0.633" transform="translate(24.7 7.092)"/><ellipse class="a" cx="0.633" cy="0.633" rx="0.633" ry="0.633" transform="translate(20.9 5.192)"/><ellipse class="a" cx="0.633" cy="0.633" rx="0.633" ry="0.633" transform="translate(22.167 7.092)"/><path class="a" d="M8.85,25.125a2.85,2.85,0,1,0,2.85,2.85A2.853,2.853,0,0,0,8.85,25.125Zm0,4.433a1.583,1.583,0,1,1,1.583-1.583A1.585,1.585,0,0,1,8.85,29.558Z" transform="translate(-2.2 -9.167)"/><path class="a" d="M8.85,44.125a2.85,2.85,0,1,0,2.85,2.85A2.853,2.853,0,0,0,8.85,44.125Zm0,4.433a1.583,1.583,0,1,1,1.583-1.583A1.585,1.585,0,0,1,8.85,48.558Z" transform="translate(-2.2 -16.133)"/><path class="a" d="M38,10.507V3.043A2.922,2.922,0,0,0,35.082.125H2.918A2.922,2.922,0,0,0,0,3.043v7.463a2.9,2.9,0,0,0,1.125,2.285A2.9,2.9,0,0,0,0,15.077v7.463a2.9,2.9,0,0,0,1.125,2.285A2.9,2.9,0,0,0,0,27.11v7.463a2.922,2.922,0,0,0,2.918,2.918H20.573a30.268,30.268,0,0,0,5.394.475c5.492,0,11.283-1.424,11.967-4.15A.627.627,0,0,0,38,33.533V15.958a.621.621,0,0,0-.061-.263,3.936,3.936,0,0,0-2.256-2.334A2.922,2.922,0,0,0,38,10.507ZM1.267,22.54V15.077a1.654,1.654,0,0,1,1.652-1.652H16.13a3.837,3.837,0,0,0-2.136,2.27.624.624,0,0,0-.061.263v8.233H2.918A1.654,1.654,0,0,1,1.267,22.54ZM15.6,18.653l.088.055q.167.1.348.205l.1.057c.148.079.3.156.46.231l.078.035c.14.064.284.125.432.186l.13.053c.175.068.353.136.537.2l.03.01c.176.06.357.118.541.174l.149.044c.182.053.367.105.557.155l.045.012c.2.053.412.1.624.149l.16.035q.272.059.549.112l.11.022q.326.061.659.113l.159.025q.276.043.557.08l.154.02q.34.043.685.079l.139.013c.193.019.388.036.582.052l.176.014c.232.017.466.032.7.044l.1,0q.309.015.619.023l.187.005c.236.005.472.009.708.009s.472,0,.708-.009l.187-.005c.206-.006.412-.013.619-.023l.1,0c.234-.012.467-.027.7-.044l.176-.014c.2-.015.389-.033.582-.052l.139-.013q.345-.036.685-.079l.154-.02c.187-.025.373-.051.557-.08l.159-.025q.333-.053.659-.113l.11-.022q.278-.053.549-.112l.16-.035c.211-.047.42-.1.624-.149l.045-.012c.189-.049.374-.1.557-.155l.149-.044c.184-.056.365-.113.542-.174l.03-.01c.184-.064.363-.13.537-.2l.13-.053c.148-.06.292-.122.432-.186l.078-.035c.16-.074.312-.151.46-.231l.1-.057q.18-.1.348-.205c.029-.018.06-.036.088-.055q.2-.127.373-.262l.024-.016v3.159a.618.618,0,0,0-.013.224.732.732,0,0,1,.015.139.916.916,0,0,1-.037.211,1.1,1.1,0,0,1-.053.164,1.277,1.277,0,0,1-.073.143,1.634,1.634,0,0,1-.091.143,2.09,2.09,0,0,1-.167.2c-.023.025-.047.051-.072.076-1.341,1.3-5.3,2.469-10.273,2.469s-8.927-1.17-10.27-2.467c-.028-.028-.053-.055-.079-.083a2.127,2.127,0,0,1-.16-.19,1.581,1.581,0,0,1-.1-.151,1.308,1.308,0,0,1-.07-.136,1.082,1.082,0,0,1-.056-.172A.869.869,0,0,1,15.2,21.9a.8.8,0,0,1,.013-.134.631.631,0,0,0-.013-.244V18.374l.024.016Q15.4,18.525,15.6,18.653Zm21.046,9.318a1.277,1.277,0,0,1-.073.143,1.634,1.634,0,0,1-.091.143,2.091,2.091,0,0,1-.167.2c-.023.025-.047.051-.072.076C34.9,29.828,30.942,31,25.967,31s-8.927-1.17-10.27-2.467c-.028-.028-.053-.055-.079-.083a2.127,2.127,0,0,1-.16-.19,1.582,1.582,0,0,1-.1-.151,1.308,1.308,0,0,1-.07-.136,1.082,1.082,0,0,1-.056-.172.887.887,0,0,1-.032-.179v-.076c0-.028,0-.057.008-.085A.6.6,0,0,0,15.2,27.3l0-3.108v-.118c.025.02.055.038.082.057.08.06.163.118.249.175.07.046.142.092.215.137.113.07.227.139.349.205l0,0a16.434,16.434,0,0,0,5.146,1.555l.046.007c.648.1,1.313.179,1.989.237.144.012.287.025.432.035s.282.019.424.027q.287.016.574.028c.111,0,.223.009.335.013.308.009.616.015.923.015s.614-.006.922-.015c.113,0,.225-.008.338-.013q.285-.011.569-.027.215-.012.428-.027c.142-.01.283-.022.425-.034.683-.058,1.354-.137,2.008-.239l.029,0a15.427,15.427,0,0,0,5.5-1.76c.073-.045.145-.09.214-.136.086-.057.169-.115.248-.175.028-.021.061-.041.089-.062v3.159a.618.618,0,0,0-.013.224,1.016,1.016,0,0,1,.013.139.916.916,0,0,1-.037.211A1.1,1.1,0,0,1,36.643,27.971ZM2.918,36.225a1.654,1.654,0,0,1-1.652-1.652V27.11a1.654,1.654,0,0,1,1.652-1.652H13.933v8.708h.187c.01.023.025.046.036.07.022.048.047.094.072.141a2.861,2.861,0,0,0,.176.277,3.213,3.213,0,0,0,.215.269c.039.044.079.088.121.132a5.034,5.034,0,0,0,.87.7l.035.023a7.939,7.939,0,0,0,.79.445H2.918Zm33.815-2.854c-.005.02-.01.04-.013.06C36.462,35.01,32.078,36.7,25.967,36.7a28.627,28.627,0,0,1-5.241-.459v-.005c-3.15-.6-4.893-1.6-5.38-2.451a0,0,0,0,1,0,0c-.022-.039-.038-.078-.055-.116a1.081,1.081,0,0,1-.077-.236l-.005-3.651c.023.018.05.034.073.052.08.06.163.118.249.175.07.046.142.092.215.137.113.07.227.139.349.205l0,0a16.434,16.434,0,0,0,5.146,1.555l.046.007c.648.1,1.313.179,1.989.237.144.012.287.025.432.035s.282.019.424.027q.287.016.574.028c.111,0,.223.009.335.013.308.009.616.015.923.015s.614-.006.922-.015c.113,0,.225-.008.338-.013q.285-.011.569-.027.215-.012.428-.027c.142-.01.283-.022.425-.034.683-.058,1.354-.137,2.008-.239l.029,0a15.427,15.427,0,0,0,5.5-1.76c.073-.045.145-.09.214-.136.085-.057.169-.115.248-.175.028-.021.061-.041.089-.062v3.6Zm0-17.175c0,1.607-4.6,3.4-10.767,3.4S15.2,17.8,15.2,16.2a.911.911,0,0,1,.043-.246,1.175,1.175,0,0,1,.11-.251l.006-.011a3.423,3.423,0,0,1,1.29-1.1l.085-.046q.168-.091.355-.181c.145-.068.294-.136.453-.2l.1-.039a16.444,16.444,0,0,1,2.621-.766c.312-.066.63-.128.957-.182l.26-.044a30.911,30.911,0,0,1,8.979,0c.089.014.175.03.263.044.325.054.641.115.951.181C34.756,14.016,36.733,15.145,36.733,16.2Zm0-5.689a1.654,1.654,0,0,1-1.652,1.652H32.149c-.037-.008-.077-.013-.114-.022-.415-.09-.843-.17-1.28-.24l-.127-.02a31.02,31.02,0,0,0-9.321,0l-.13.02c-.436.07-.862.15-1.276.239-.037.008-.079.013-.117.022H2.918a1.653,1.653,0,0,1-1.652-1.651V3.043A1.654,1.654,0,0,1,2.918,1.392H35.081a1.654,1.654,0,0,1,1.652,1.652Z" transform="translate(0 0)"/></g></svg>