<svg xmlns="http://www.w3.org/2000/svg" viewBox="2182 1745 47.47 80">
  <path fill="#fff" d="M2229.47 1775.35v-21.94h-.58v-6.3a2.12 2.12 0 0 0-2.12-2.11h-42.66a2.12 2.12 0 0 0-2.11 2.12v75.77a2.12 2.12 0 0 0 2.11 2.11h42.66a2.12 2.12 0 0 0 2.12-2.12v-11.84h.58v-6.87h-.58v-28.82zm-27.86-27.96h8.26v1.06h-8.26zm7.1 74.94a.31.31 0 0 1-.3.31h-4.55a.31.31 0 0 1-.31-.31v-3a.32.32 0 0 1 .14-.26l2.27-1.53a.32.32 0 0 1 .35 0l2.27 1.53a.31.31 0 0 1 .14.3v2.96zm17.2-9.73a2.12 2.12 0 0 1-2.12 2.11h-36.67a2.12 2.12 0 0 1-2.12-2.11v-59.98a2.12 2.12 0 0 1 2.12-2.12h36.67a2.12 2.12 0 0 1 2.11 2.11v59.99z"/>
</svg>