<svg xmlns="http://www.w3.org/2000/svg" viewBox="2182 1745 47.473 80"><defs><style>.a{fill:#fff;}</style></defs><g transform="translate(2095.828 1745)"><path class="a" d="M133.645,30.35V8.406h-.586V2.115A2.116,2.116,0,0,0,130.944,0H88.287a2.116,2.116,0,0,0-2.115,2.115v75.77A2.116,2.116,0,0,0,88.287,80h42.657a2.116,2.116,0,0,0,2.115-2.115V66.041h.586V59.168h-.586V30.35ZM105.777,2.392h8.262V3.45h-8.262Zm7.111,74.935a.312.312,0,0,1-.312.313h-4.542a.313.313,0,0,1-.313-.313v-3a.318.318,0,0,1,.138-.26l2.273-1.527a.32.32,0,0,1,.35,0l2.271,1.527a.312.312,0,0,1,.136.307v2.952ZM130.076,67.6a2.115,2.115,0,0,1-2.115,2.115H91.291A2.116,2.116,0,0,1,89.175,67.6V7.618A2.116,2.116,0,0,1,91.291,5.5h36.67a2.115,2.115,0,0,1,2.115,2.115V67.6Z"/></g></svg>