<svg xmlns="http://www.w3.org/2000/svg" viewBox="8557 1274 38 38"><defs><style>.a{fill:#fff;}</style></defs><g transform="translate(8506 1251)"><path class="a" d="M37.954,17.733A19,19,0,0,0,20.267.043V0H17.733V.043A19,19,0,0,0,.043,17.733H0v2.533H.043a19,19,0,0,0,17.69,17.688V38h2.533v-.046A18.993,18.993,0,0,0,37.954,20.267H38V17.733ZM11.894,4.142a20.141,20.141,0,0,0-2.979,5.991H5.12A16.553,16.553,0,0,1,11.894,4.142Zm-8.1,8.525H8.249a30.086,30.086,0,0,0-.623,5.067H2.581A16.324,16.324,0,0,1,3.795,12.667Zm-1.213,7.6H7.625a30.086,30.086,0,0,0,.623,5.067H3.795A16.324,16.324,0,0,1,2.581,20.267Zm2.538,7.6H8.912a20.084,20.084,0,0,0,2.982,5.991A16.535,16.535,0,0,1,5.12,27.867ZM17.733,35.3c-2.6-.7-4.846-3.493-6.207-7.438h6.207Zm0-9.971H10.815a28.313,28.313,0,0,1-.656-5.067h7.575Zm0-7.6H10.159a28.313,28.313,0,0,1,.656-5.067h6.919Zm0-7.6H11.527c1.36-3.944,3.6-6.741,6.207-7.435Zm15.147,0H29.09a20.088,20.088,0,0,0-2.984-5.991A16.569,16.569,0,0,1,32.88,10.133ZM20.267,2.7c2.6.694,4.846,3.491,6.207,7.435H20.267Zm0,9.969h6.916a28.541,28.541,0,0,1,.659,5.067H20.267Zm0,7.6h7.575a28.081,28.081,0,0,1-.659,5.067H20.267Zm0,15.038V27.867h6.207C25.113,31.811,22.868,34.608,20.267,35.3Zm5.839-1.447a20.239,20.239,0,0,0,2.984-5.991h3.79A16.551,16.551,0,0,1,26.106,33.858Zm8.1-8.525H29.751a30.086,30.086,0,0,0,.623-5.067h5.041A16.251,16.251,0,0,1,34.205,25.333Zm-3.83-7.6a30.086,30.086,0,0,0-.623-5.067h4.454a16.324,16.324,0,0,1,1.213,5.067Z" transform="translate(51 23)"/></g></svg>