<?xml version="1.0" encoding="iso-8859-1"?>
<!-- Generator: Adobe Illustrator 19.0.0, SVG Export Plug-In . SVG Version: 6.00 Build 0)  -->
<svg xmlns="http://www.w3.org/2000/svg" xmlns:xlink="http://www.w3.org/1999/xlink" version="1.1" id="Capa_1" x="0px" y="0px" viewBox="0 0 479.985 479.985" style="enable-background:new 0 0 479.985 479.985;" xml:space="preserve" width="512px" height="512px">
<g>
	<g>
		<path d="M383.992,87.985h-96v-80c-0.008-4.418-3.597-7.993-8.015-7.985c-1.191,0.002-2.367,0.27-3.441,0.785l-184,88    c-0.774,0.38-1.482,0.882-2.096,1.488l-0.112,0.08c-0.674,0.696-1.216,1.51-1.6,2.4c-0.12,0.272-0.152,0.56-0.248,0.848    c-0.22,0.652-0.357,1.33-0.408,2.016c0,0.144-0.08,0.272-0.08,0.416v375.952c0,4.418,3.582,8,8,8h288c4.418,0,8-3.582,8-8v-376    C391.992,91.567,388.411,87.985,383.992,87.985z M271.992,20.681v67.304H131.265L271.992,20.681z M375.992,463.985h-272v-360h272    V463.985z" fill="#FFFFFF"/>
	</g>
</g>
<g>
	<g>
		<path d="M331.699,250.323c-7.864-7.863-18.529-12.281-29.65-12.282c-8.011,0.009-15.847,2.341-22.56,6.712    c-1.069-9.254-5.219-17.879-11.784-24.488c-16.394-16.341-42.918-16.341-59.312,0l-2.344,2.344l-2.344-2.344    c-16.379-16.379-42.933-16.379-59.312,0c-16.379,16.379-16.379,42.933,0,59.312l56,56c3.124,3.123,8.188,3.123,11.312,0    l11.312-11.312l41.376,41.376c3.124,3.123,8.188,3.123,11.312,0l56-56C348.083,293.259,348.081,266.702,331.699,250.323z     M206.049,318.609l-50.344-50.344c-10.016-10.246-9.83-26.672,0.415-36.688c10.082-9.856,26.19-9.856,36.273,0l8,8    c3.124,3.123,8.188,3.123,11.312,0l8-8c10.181-10.07,26.597-9.98,36.667,0.201c9.893,10.002,10.005,26.068,0.253,36.208    l-0.416,0.464L206.049,318.609z M320.393,298.329l-50.344,50.344l-35.72-35.72l33.376-33.376c0.112-0.104,0.184-0.24,0.288-0.352    l15.688-17.6c10.274-9.81,26.447-9.803,36.712,0.016C330.505,271.78,330.505,288.19,320.393,298.329z" fill="#FFFFFF"/>
	</g>
</g>
<g>
</g>
<g>
</g>
<g>
</g>
<g>
</g>
<g>
</g>
<g>
</g>
<g>
</g>
<g>
</g>
<g>
</g>
<g>
</g>
<g>
</g>
<g>
</g>
<g>
</g>
<g>
</g>
<g>
</g>
</svg>
