<?xml version="1.0" encoding="iso-8859-1"?>
<!-- Generator: Adobe Illustrator 19.0.0, SVG Export Plug-In . SVG Version: 6.00 Build 0)  -->
<svg xmlns="http://www.w3.org/2000/svg" xmlns:xlink="http://www.w3.org/1999/xlink" version="1.1" id="Capa_1" x="0px" y="0px" viewBox="0 0 512.001 512.001" style="enable-background:new 0 0 512.001 512.001;" xml:space="preserve" width="512px" height="512px">
<g>
	<g>
		<path d="M432.328,63.673h-83.265v-48.98c0-4.525-2.085-8.797-5.651-11.582c-3.567-2.784-8.217-3.77-12.606-2.673L76.111,64.112    c-0.118,0.029-0.228,0.071-0.345,0.103c-0.256,0.07-0.509,0.144-0.76,0.228c-0.199,0.067-0.394,0.141-0.589,0.216    c-0.233,0.089-0.465,0.179-0.693,0.28c-0.215,0.095-0.422,0.199-0.631,0.304c-0.196,0.098-0.393,0.194-0.583,0.301    c-0.236,0.131-0.462,0.275-0.69,0.418c-0.155,0.098-0.312,0.192-0.463,0.296c-0.254,0.174-0.496,0.362-0.737,0.552    c-0.116,0.091-0.236,0.175-0.349,0.269c-0.273,0.228-0.533,0.47-0.788,0.716c-0.073,0.07-0.151,0.134-0.222,0.206    c-0.322,0.324-0.631,0.662-0.922,1.014c-0.045,0.055-0.083,0.115-0.127,0.169c-0.236,0.296-0.466,0.596-0.679,0.908    c-0.117,0.17-0.219,0.352-0.329,0.528c-0.128,0.206-0.261,0.409-0.378,0.622c-0.111,0.2-0.209,0.408-0.31,0.613    c-0.1,0.202-0.203,0.403-0.293,0.608c-0.092,0.21-0.172,0.424-0.255,0.639c-0.083,0.216-0.167,0.433-0.24,0.654    c-0.069,0.208-0.129,0.418-0.188,0.63c-0.069,0.242-0.132,0.486-0.188,0.732c-0.045,0.199-0.085,0.398-0.121,0.599    c-0.05,0.273-0.091,0.549-0.126,0.826c-0.023,0.185-0.045,0.371-0.061,0.558c-0.025,0.299-0.038,0.601-0.046,0.903    c-0.003,0.121-0.019,0.24-0.019,0.362v418.94c0,8.115,6.579,14.694,14.694,14.694h352.654c8.115,0,14.694-6.579,14.694-14.694    V78.367C447.022,70.252,440.443,63.673,432.328,63.673z M319.675,33.513v30.161h-120.64L319.675,33.513z M417.634,482.612H94.369    V93.061h323.266V482.612z" fill="#FFFFFF"/>
	</g>
</g>
<g>
	<g>
		<path d="M305.19,196.286c-19.764,0-37.461,9.022-49.188,23.164c-11.728-14.142-29.424-23.164-49.189-23.164    c-35.225,0-63.882,28.657-63.882,63.882c0,19.37,5.383,38.32,15.568,54.797c10.184,16.478,24.724,29.767,42.051,38.429    l48.882,24.441c2.068,1.034,4.319,1.551,6.571,1.551c2.252,0,4.503-0.517,6.571-1.551l48.882-24.441    c17.327-8.664,31.867-21.952,42.051-38.429c10.184-16.478,15.568-35.427,15.568-54.797    C369.073,224.943,340.416,196.286,305.19,196.286z M298.313,327.109l-42.311,21.155l-42.311-21.155    c-25.519-12.759-41.372-38.41-41.372-66.941c0-19.02,15.475-34.494,34.495-34.494c19.02,0,34.494,15.475,34.494,34.494    c0,8.115,6.579,14.694,14.694,14.694c8.115,0,14.694-6.579,14.694-14.694c0-19.02,15.475-34.494,34.495-34.494    c19.018,0,34.492,15.475,34.492,34.494C339.685,288.7,323.831,314.35,298.313,327.109z" fill="#FFFFFF"/>
	</g>
</g>
<g>
</g>
<g>
</g>
<g>
</g>
<g>
</g>
<g>
</g>
<g>
</g>
<g>
</g>
<g>
</g>
<g>
</g>
<g>
</g>
<g>
</g>
<g>
</g>
<g>
</g>
<g>
</g>
<g>
</g>
</svg>
