<svg xmlns="http://www.w3.org/2000/svg" viewBox="15541 1387 708 430">
    <defs>
        <style>
            .a,.b,.c,.f{fill:#fff;}.a{font-size:300px;}.a,.b{font-family:ProductSans-Regular, Product Sans;}.b{font-size:37px;}.d{fill:none;}.e,.f{stroke:none;}.g{filter:url(#i);}.h{filter:url(#g);}.i{filter:url(#e);}.j{filter:url(#c);}.k{filter:url(#a);}
        </style>
        <filter id="a" width="207" height="394" x="15541" y="1387" filterUnits="userSpaceOnUse">
            <feOffset dy="6" input="SourceAlpha"/>
            <feGaussianBlur result="b" stdDeviation="5"/>
            <feFlood flood-opacity="0.161"/>
            <feComposite in2="b" operator="in"/>
            <feComposite in="SourceGraphic"/>
        </filter>
        <filter id="c" width="676" height="63" x="15557" y="1754" filterUnits="userSpaceOnUse">
            <feOffset dy="3" input="SourceAlpha"/>
            <feGaussianBlur result="d" stdDeviation="3"/>
            <feFlood flood-opacity="0.161"/>
            <feComposite in2="d" operator="in"/>
            <feComposite in="SourceGraphic"/>
        </filter>
        <filter id="e" width="207" height="394" x="16042" y="1387" filterUnits="userSpaceOnUse">
            <feOffset dy="6" input="SourceAlpha"/>
            <feGaussianBlur result="f" stdDeviation="5"/>
            <feFlood flood-opacity="0.161"/>
            <feComposite in2="f" operator="in"/>
            <feComposite in="SourceGraphic"/>
        </filter>
        <filter id="g" width="161.144" height="133.543" x="15803.701" y="1522.447" filterUnits="userSpaceOnUse">
            <feOffset dy="6" input="SourceAlpha"/>
            <feGaussianBlur result="h" stdDeviation="5"/>
            <feFlood flood-opacity="0.161"/>
            <feComposite in2="h" operator="in"/>
            <feComposite in="SourceGraphic"/>
        </filter>
        <filter id="i" width="258" height="258" x="15766" y="1457" filterUnits="userSpaceOnUse">
            <feOffset dy="3" input="SourceAlpha"/>
            <feGaussianBlur result="j" stdDeviation="3"/>
            <feFlood flood-opacity="0.161"/>
            <feComposite in2="j" operator="in"/>
            <feComposite in="SourceGraphic"/>
        </filter>
    </defs>
    <g class="k" transform="matrix(1, 0, 0, 1, 0, 0)">
        <text class="a" transform="translate(15556 1684)">
            <tspan x="0" y="0">4</tspan>
        </text>
    </g>
    <g class="j" transform="matrix(1, 0, 0, 1, 0, 0)">
        <text class="b" transform="translate(15566 1796)">
            <tspan x="0" y="0">ahhh... awkward... there is no such page...</tspan>
        </text>
    </g>
    <g class="i" transform="matrix(1, 0, 0, 1, 0, 0)">
        <text class="a" transform="translate(16057 1684)">
            <tspan x="0" y="0">4</tspan>
        </text>
    </g>
    <g class="h" transform="matrix(1, 0, 0, 1, 0, 0)">
        <path d="M122.4,134.353c22.819,0,43.186,12.994,51.882,33.107a6.786,6.786,0,0,1-12.457,5.388c-6.553-15.139-22.025-24.919-39.425-24.919-17.807,0-33.374,9.774-39.653,24.9a6.787,6.787,0,1,1-12.537-5.2C78.6,147.414,99.09,134.353,122.4,134.353ZM75.219,87.508a14.03,14.03,0,1,1,14.032,14.037A14.036,14.036,0,0,1,75.219,87.508Zm63.627,0a14.034,14.034,0,1,1,14.035,14.037A14.041,14.041,0,0,1,138.846,87.508Zm-92.26,21.265c5.372-5.619,19.233-5.207,19.233-5.207a26.234,26.234,0,0,0-4.3,9.484,15.645,15.645,0,0,1-3.489,7.64c-5.8,6.074-11.792.249-11.792.249C40.34,115.308,46.586,108.772,46.586,108.772Zm.919,35.358c3.738-3.913,13.39-3.625,13.39-3.625a18.266,18.266,0,0,0-3,6.6,10.9,10.9,0,0,1-2.428,5.32c-4.039,4.229-8.21.172-8.21.172C43.155,148.681,47.5,144.131,47.5,144.131Z" class="c" transform="translate(15775 1457.97)"/>
    </g>
    <g class="g" transform="matrix(1, 0, 0, 1, 0, 0)">
        <g class="d" transform="translate(15775 1463)">
            <path d="M120,0A120,120,0,1,1,0,120,120,120,0,0,1,120,0Z" class="e"/>
            <path d="M 120 216 C 172.9345855712891 216 216 172.9345855712891 216 120 C 216 67.06542205810547 172.9345855712891 24 120 24 C 67.06542205810547 24 24 67.06542205810547 24 120 C 24 172.9345855712891 67.06542205810547 216 120 216 M 120 240 C 53.7258415222168 240 0 186.2741546630859 0 120 C 0 53.7258415222168 53.7258415222168 0 120 0 C 186.2741546630859 0 240 53.7258415222168 240 120 C 240 186.2741546630859 186.2741546630859 240 120 240 Z" class="f"/>
        </g>
    </g>
</svg>
